<svg version="1.1" id="Capa_1" xmlns="http://www.w3.org/2000/svg" x="0" y="0" viewBox="0 0 64.957 65" xml:space="preserve"><style>.st1{fill:#fff}</style><circle cx="32.5" cy="32.5" r="32.5" fill="#00bff3"/><path class="st1" d="M27.463 34.208c.675 0 1.329-.043 1.947-.124v-6.776a14.99 14.99 0 0 0-1.947-.125c-3.86 0-6.988 1.419-6.988 3.169v.687c0 1.75 3.128 3.17 6.988 3.17zm0 3.539a15 15 0 0 0 1.947-.125v-1.986c-.618.08-1.271.125-1.947.125-3.37 0-6.18-1.081-6.841-2.52-.096.21-.147.427-.147.65v.686c0 1.75 3.128 3.17 6.988 3.17zm1.947 1.581v-.154c-.619.081-1.272.125-1.948.125-3.368 0-6.18-1.08-6.84-2.52-.096.21-.147.427-.147.65v.687c0 1.75 3.128 3.169 6.987 3.169.772 0 1.514-.057 2.209-.162a2.5 2.5 0 0 1-.261-1.107v-.688zm8.128-17.513c-3.86 0-6.988 1.419-6.988 3.17v.687c0 1.75 3.128 3.169 6.988 3.169 3.859 0 6.987-1.419 6.987-3.17v-.687c0-1.75-3.128-3.169-6.987-3.169z"/><path class="st1" d="M37.538 30.394c-3.369 0-6.18-1.082-6.841-2.52a1.544 1.544 0 0 0-.147.649v.687c0 1.75 3.128 3.17 6.988 3.17 3.859 0 6.987-1.42 6.987-3.17v-.687c0-.223-.05-.44-.147-.65-.66 1.44-3.472 2.52-6.84 2.52z"/><path class="st1" d="M37.538 33.932c-3.369 0-6.18-1.081-6.841-2.52-.096.21-.147.426-.147.649v.687c0 1.75 3.128 3.17 6.988 3.17 3.859 0 6.987-1.42 6.987-3.17v-.687c0-.223-.05-.44-.147-.65-.66 1.44-3.472 2.52-6.84 2.52z"/><path class="st1" d="M37.538 37.661c-3.369 0-6.18-1.081-6.841-2.52-.096.21-.147.427-.147.65v.686c0 1.75 3.128 3.17 6.988 3.17 3.859 0 6.987-1.42 6.987-3.17v-.687c0-.222-.05-.44-.147-.649-.66 1.439-3.472 2.52-6.84 2.52z"/><path class="st1" d="M37.538 41.2c-3.369 0-6.18-1.082-6.841-2.52a1.543 1.543 0 0 0-.147.648v.688c0 1.75 3.128 3.169 6.988 3.169 3.859 0 6.987-1.419 6.987-3.17v-.687c0-.222-.05-.44-.147-.649-.66 1.44-3.472 2.52-6.84 2.52z"/></svg>