<svg xmlns="http://www.w3.org/2000/svg" viewBox="0 0 512 512"><path d="M363.71 0H148.29c-20.616 0-37.259 16.717-37.259 37.296v437.445c0 20.56 16.643 37.259 37.26 37.259H363.71c20.58 0 37.259-16.699 37.259-37.26V37.297c0-20.579-16.68-37.296-37.26-37.296zM202.845 22.65h106.348c2.686 0 4.87 4.012 4.87 8.975s-2.184 8.992-4.87 8.992H202.845c-2.706 0-4.851-4.03-4.851-8.992 0-4.963 2.145-8.975 4.85-8.975zm53.174 452.539c-13.117 0-23.789-10.672-23.789-23.807 0-13.135 10.672-23.77 23.789-23.77 13.079 0 23.75 10.635 23.75 23.77s-10.671 23.807-23.75 23.807zm117.038-81.515H138.961V62.932h234.096v330.742z" fill="#fff"/></svg>