<svg version="1.1" id="Capa_1" xmlns="http://www.w3.org/2000/svg" x="0" y="0" viewBox="0 0 64.957 65" xml:space="preserve"><style>.st1{fill:#fff}</style><circle cx="32.5" cy="32.5" r="32.5" fill="#00bff3"/><path class="st1" d="M22.865 47.488h1.07v-7.494h1.071v7.494h1.07V36.782h-3.211v10.706zm1.07-9.635h1.071v1.07h-1.07v-1.07zm-5.352-1.071h3.212v10.706h-3.212z"/><circle class="st1" cx="35.712" cy="25.006" r="1.071"/><path class="st1" d="M33.56 32.742c.002-.047.01-.092.01-.14V30.08l-1.27.508-.345-3.695-3.057-2.167 3.057-2.168.348-3.733 3.409 1.564 3.408-1.564.348 3.733 3.057 2.168-3.057 2.167-.345 3.695-1.27-.508v2.666a8.033 8.033 0 0 0 5.888-7.739c0-4.427-3.602-8.029-8.03-8.029s-8.028 3.602-8.028 8.03a8.032 8.032 0 0 0 5.877 7.735zm6.434 3.505a1.072 1.072 0 0 0 0 2.141h5.353a1.072 1.072 0 0 0 0-2.141h-5.353zm3.212 9.635h-4.283a1.072 1.072 0 0 0 0 2.141h4.283a1.072 1.072 0 0 0 0-2.141zm2.141-6.423h-6.423a1.072 1.072 0 0 0 0 2.14h6.421a1.072 1.072 0 0 0 0-2.14z"/><path class="st1" d="M36.782 40.53c0-.934.604-1.721 1.439-2.014a2.127 2.127 0 0 1-.368-1.199c0-.504.183-.962.476-1.33a2.673 2.673 0 0 1-1.547-2.416v-5.073l1.409.562.256-2.758 2.227-1.578-2.227-1.579-.253-2.72-2.482 1.141-2.483-1.14-.254 2.72-2.226 1.579 2.226 1.578.257 2.758 1.41-.563v4.104a5.243 5.243 0 0 1-3.183 4.826 5.213 5.213 0 0 1-2.068.425h-2.244v8.564h1.732l.113.056a14.75 14.75 0 0 0 6.563 1.55h1.525a2.12 2.12 0 0 1-.298-1.07c0-.643.29-1.214.74-1.606a2.128 2.128 0 0 1-.74-1.606c0-.643.29-1.213.74-1.606a2.128 2.128 0 0 1-.74-1.606zm-1.07-13.383c-1.181 0-2.141-.96-2.141-2.14s.96-2.142 2.14-2.142 2.142.96 2.142 2.141-.96 2.141-2.141 2.141zm8.564 15.523h-5.353a1.072 1.072 0 0 0 0 2.141h5.353a1.072 1.072 0 0 0 0-2.14z"/></svg>