<svg version="1.1" id="Capa_1" xmlns="http://www.w3.org/2000/svg" x="0" y="0" viewBox="0 0 64.957 65" xml:space="preserve"><style>.st1{fill:#fff}</style><circle cx="32.5" cy="32.5" r="32.5" fill="#00bff3"/><path class="st1" d="M26.346 42.59l-1.055-1.054.478-3.817-1.874.625a2.757 2.757 0 0 0-1.888 2.619v7.552h6.7l-2.891-4.336.53-1.589zm-1.025 3.716h-2.21v-1.104h2.21v1.104zm1.127-16.662c-.011-.151-.023-.303-.023-.458v-2.66a1.655 1.655 0 0 0-1.104 1.556c0 .727.474 1.34 1.127 1.562zm9.844 7.095l-.92-.306-2.045 1.635 2.33 2.33.635-3.659zm2.283-7.553c0 .155-.012.307-.023.458a1.654 1.654 0 0 0 1.127-1.562c0-.719-.463-1.326-1.104-1.555v2.66zm-12.15-6.626l.884.662a10.256 10.256 0 0 0 4.689 1.942l.274.04a3.034 3.034 0 0 1 .286-1.787l.296-.592.53.397a11.694 11.694 0 0 0 4.086 1.96v-1.518h1.105v1.712c.41.084.782.267 1.104.51v-2.76a6.65 6.65 0 0 0-6.642-6.641 6.63 6.63 0 0 0-5.527 2.957l-.191.288-.207.052a2.36 2.36 0 0 0-1.791 2.293v3.812a2.734 2.734 0 0 1 1.104-.51v-2.818zm8.284 12.988v-.709c-.686.27-1.43.422-2.209.422s-1.523-.153-2.209-.422v.709l2.209 1.767 2.209-1.767zm-6.001 1.191l.636 3.659 2.33-2.33-2.046-1.635-.92.306z"/><path class="st1" d="M37.47 26.318a12.89 12.89 0 0 1-4.113-1.766c-.04.366.022.74.19 1.074l.471.943-2.176-.311a11.36 11.36 0 0 1-4.312-1.553v4.481c0 2.74 2.23 4.97 4.97 4.97s4.97-2.23 4.97-4.97v-2.868zm-7.73 1.212a.553.553 0 1 1 0-1.106.553.553 0 0 1 0 1.106zm2.76 4.97a2.211 2.211 0 0 1-2.209-2.209h1.104a1.106 1.106 0 0 0 2.21 0h1.104A2.21 2.21 0 0 1 32.5 32.5zm2.761-4.97a.553.553 0 1 1 .001-1.106.553.553 0 0 1 0 1.106zm-4.298 12.81l.774 1.548h1.526l.774-1.548-1.537-1.537-1.537 1.537zm3.205 2.209l.36 4.332.897-5.153-.565-.564-.692 1.385zm-2.264.444l-.46 5.522h2.113l-.46-5.522h-1.193zm5.486-.702l1.155-1.154-.475-3.805-.718-.24-1.845 10.611 2.458-3.687-.574-1.725z"/><path class="st1" d="M41.105 38.343l-1.874-.624.478 3.816-1.055 1.055.53 1.589-2.891 4.336h6.7v-7.552a2.76 2.76 0 0 0-1.888-2.62zm-11.53 3.385l.896 5.153.361-4.332-.692-1.385-.565.564zm-2.645-4.396l-.475 3.805 1.154 1.154-.574 1.725 2.458 3.687-1.845-10.61-.718.239z"/></svg>