<svg xmlns="http://www.w3.org/2000/svg" viewBox="0 0 448.711 448.711"><path d="M334.517 51.736s-2.129-77.854-87.991-42.554a1.982 1.982 0 0 0-1.16 2.335 1.982 1.982 0 0 0 2.173 1.453c16.898-2.247 39.785.455 50.987 26.977 0 0-53.064-33.965-123.189 47.501a1.974 1.974 0 0 0 .015 2.598c.66.741 1.762.889 2.584.339 22.63-15.123 71.46-41.299 103.339-11.445 0 0-68.371-4.205-75.85 88.718-48.998-55.971-85.965-32.423-85.965-32.423 7.929-18.763 24.136-20.642 36.079-19.041a1.402 1.402 0 0 0 1.535-1.028 1.401 1.401 0 0 0-.815-1.652c-59.892-24.766-55.818 31.375-55.818 31.375-63.767-15.922-62.285 59.679-59.333 89.48a1.4 1.4 0 0 0 1.336 1.263 1.41 1.41 0 0 0 1.431-1.16c7.649-43.889 44.63-62.856 44.63-62.856-33.833 48.196-22.866 99.823-13.418 126.146a2.052 2.052 0 0 0 3.97-.909c-5.696-53.205 30.721-95.817 38.442-104.192 26.303 35.374 35.36 93.834 38.334 134.699-54.636 13.69-93.563 46.524-93.563 68.957 0 28.937 64.714 52.396 144.543 52.396 79.835 0 144.549-23.459 144.549-52.396 0-21.574-35.961-52.831-87.308-67.372-2.613-62.586 3.912-144.983 46.833-196.329 18.402 23.401 51.413 74.778 44.843 136.122a2.892 2.892 0 0 0 2.233 3.134 2.905 2.905 0 0 0 3.384-1.841c13.366-37.261 28.891-110.352-18.998-178.588 0 0 49.754 25.521 62.291 84.379a1.977 1.977 0 0 0 2.115 1.557 1.976 1.976 0 0 0 1.798-1.91c1.182-44.374-4.03-141.21-74.036-123.733zM191.766 321.492c-.316.023-.609.074-.917.097-8.692-72.532-37.93-113.669-55.84-132.482 24.958 1.451 39.88 25.265 46.554 39.447a2.052 2.052 0 0 0 2.363 1.115 2.053 2.053 0 0 0 1.535-2.121c-4.361-67.922-53.814-64.766-53.814-64.766 22.328-20.908 57.351-2.353 73.53 8.376.143 1.163.926 2.159 2.091 2.466a2.899 2.899 0 0 0 3.348-1.578c9.902-21.03 32.555-57.183 71.026-56.029-23.018 29.81-66.533 97.533-89.876 205.475z" fill="#01abd9"/></svg>