<svg xmlns="http://www.w3.org/2000/svg" viewBox="0 0 64.957 65"><circle cx="32.5" cy="32.5" r="32.5" fill="#00bff3"/><path d="M34.916 28.093h-4.832l-.283 5.134 5.294-1.897zm.938 17.002l-.354-6.41-6.121 2.193-.233 4.216a.85.85 0 0 0 .85.898h5.009a.85.85 0 0 0 .85-.897zm-.662-11.993L29.7 35.07l-.219 3.965 5.923-2.122zm-.542-8.819l6.34-7.262s-7.466-.595-8.495 6.207c-1.03-6.802-8.496-6.207-8.496-6.207l6.321 7.24c-6.088-4.537-10.864 1.902-10.864 1.902h26.088s-4.791-6.46-10.893-1.88z" fill="#fff"/></svg>