<svg version="1.1" id="Capa_1" xmlns="http://www.w3.org/2000/svg" x="0" y="0" viewBox="0 0 64.957 65" xml:space="preserve"><style>.st1{fill:#fff}</style><circle cx="32.5" cy="32.5" r="32.5" fill="#00bff3"/><path class="st1" d="M37.742 27.9a.898.898 0 0 0-1.274 0 .902.902 0 0 0 1.274 1.275.902.902 0 0 0 0-1.275z"/><path class="st1" d="M39.452 20.888a16.412 16.412 0 0 0-3.525 1.93l-9.348 2.285a.786.786 0 0 0-.369 1.32l3.503 3.503c-.227.42-.411.823-.554 1.209l5.272 5.271a9.388 9.388 0 0 0 1.208-.554l3.382 3.382a.786.786 0 0 0 1.32-.37l2.183-8.926c.964-1.25 1.657-2.593 2.153-3.824l-5.225-5.226zm-.598 9.399a2.466 2.466 0 0 1-1.75.723 2.466 2.466 0 0 1-1.749-.723 2.476 2.476 0 0 1 0-3.499 2.477 2.477 0 0 1 3.499 0 2.476 2.476 0 0 1 0 3.499zm6.402-5.819c.031-.104.062-.207.09-.307.609-2.137.7-3.75.703-3.817a.786.786 0 0 0-.827-.827c-.068.004-1.68.094-3.818.703-.1.028-.203.058-.307.09l4.159 4.158zm-17.042 7.945l-1.478.627a.787.787 0 0 0-.248 1.28l4.757 4.758a.786.786 0 0 0 1.28-.249l.628-1.477-4.94-4.939zm-.545 5.603a.786.786 0 0 0-1.112 0l-6.323 6.323a.786.786 0 1 0 1.112 1.112l6.323-6.323a.786.786 0 0 0 0-1.112zm-6.571 2.75a.784.784 0 0 0 .556-.23l3.71-3.712a.787.787 0 0 0-1.111-1.112l-3.711 3.711a.787.787 0 0 0 .556 1.343zm7.762-.446l-3.71 3.711a.787.787 0 0 0 1.111 1.112l3.711-3.71a.786.786 0 1 0-1.111-1.113z"/></svg>