<svg xmlns="http://www.w3.org/2000/svg" viewBox="0 0 512 512"><path d="M0 0v122.528l9.419-1.176c45.776-5.728 92.523-8.628 136.952-8.628 3.869 0 7.549.148 11.365.19C109.973 12.783 3.884 2.091 0 0zm271 301H0v211h122.553c114.492 0 196.49-40.747 254.74-91H234.262l-21.314-37.602 26.104-14.795 12.7 22.397h156.35c28.154-30.308 50.041-61.924 65.486-90H301v30h-30v-30zM136 451c-25.239 0-45-26.353-45-60s19.761-60 45-60v30c-6.123 0-15 11.689-15 30s8.877 30 15 30v30zm60 0c-25.239 0-45-26.353-45-60s19.761-60 45-60v30c-6.123 0-15 11.689-15 30s8.877 30 15 30v30zM13.14 151.117L0 152.758V271h489.024c13.859-29.477 20.669-50.57 22.976-53.467-25.745-6.489-202.898-103.421-498.86-66.416z" fill="#01abd9"/></svg>