<svg xmlns="http://www.w3.org/2000/svg" viewBox="0 0 512 512"><path d="M500.887 233.035c10.078-9.822 13.635-24.237 9.288-37.636-4.357-13.4-15.706-22.966-29.65-24.995l-123.97-18.014a16.193 16.193 0 0 1-12.2-8.868L288.93 31.198c-6.223-12.62-18.854-20.464-32.93-20.464-14.066 0-26.697 7.843-32.92 20.464l-55.434 112.334a16.21 16.21 0 0 1-12.21 8.868L31.463 170.414c-13.933 2.02-25.292 11.595-29.65 24.995-4.346 13.4-.789 27.814 9.29 37.636l89.697 87.432a16.233 16.233 0 0 1 4.675 14.353l-21.16 123.458c-1.876 10.868.974 21.438 8.007 29.773 10.929 12.99 30.008 16.947 45.264 8.93l110.868-58.295c4.634-2.43 10.468-2.41 15.092 0l110.878 58.295c5.393 2.84 11.145 4.275 17.08 4.275 10.837 0 21.11-4.819 28.174-13.205 7.043-8.335 9.883-18.926 8.007-29.773l-21.17-123.458a16.224 16.224 0 0 1 4.674-14.353l89.698-87.442z" fill="#00bff3"/></svg>